<?xml version="1.0" encoding="UTF-8"?>
<svg id="artwork" xmlns="http://www.w3.org/2000/svg" version="1.1" viewBox="0 0 545.6 242.6">
  <!-- Generator: Adobe Illustrator 29.6.1, SVG Export Plug-In . SVG Version: 2.1.1 Build 9)  -->
  <defs>
    <style>
      .st0 {
        fill: #fff;
      }
    </style>
  </defs>
  <path class="st0" d="M156,117.1h22.8v9.6h-22.8v18.5h-10.5v-47.8h36.4v9.6h-25.9v10.2h0ZM210.1,97l20.5,48.2h-11l-4.4-10.7h-20.2l-4.4,10.7h-10.7l20.5-48.2h9.7ZM211.5,125.1l-6.4-15.5-6.4,15.5h12.7ZM267.5,126.8l-22.4-29.4h-9.7v47.8h10.4v-30.4l23.2,30.4h9v-47.8h-10.4v29.4h0ZM308,116.5c-8.3-2.1-10.3-3.1-10.3-6.3h0c0-2.5,2.1-4.3,6.1-4.3s8.2,1.8,12.4,4.7l5.5-7.9c-4.9-3.9-10.8-6.1-17.8-6.1s-16.7,5.7-16.7,14.4h0c0,9.6,6.2,12.3,15.9,14.8,8,2.1,9.6,3.4,9.6,6.1h0c0,2.9-2.6,4.6-6.9,4.6s-10-2.2-14.3-5.8l-6.2,7.4c5.7,5.1,13,7.6,20.3,7.6,10.3,0,17.5-5.3,17.5-14.8h0c0-8.5-5.5-12-15.2-14.5ZM361.4,116.2h-19.4v-18.9h-10.5v47.8h10.5v-19.2h19.4v19.2h10.5v-47.8h-10.5v18.9ZM407.8,97l20.5,48.2h-11l-4.4-10.7h-20.2l-4.4,10.7h-10.7l20.5-48.2h9.7ZM409.2,125.1l-6.4-15.5-6.4,15.5h12.7ZM475.1,129.7l-10.7-32.5h-9l-10.7,32.5-9.9-32.4h-11.3l16.3,48.1h9.1l10.8-31.3,10.8,31.3h9.2l16.3-48.2h-11l-9.9,32.4ZM512.5,135.8v-10h22.5v-9.4h-22.5v-9.7h25.6v-9.4h-36.1v47.8h36.4v-9.4h-26Z"/>
  <path class="st0" d="M28.1,91.7v-15.2c0-.2.2-.4.4-.5.2,0,.4,0,.5.2l23,23,6.6-6.6-14-14h0c-.6-.6-1-1.4-1-2.2s0-15.3,0-15.3c0-.2.2-.5.4-.5.1,0,.4,0,.6.2l22.9,23,22.9-23c.1-.1.3-.2.4-.2.2,0,.6.2.6.6v15.5c0,.8-.6,1.8-1.3,2.4h0c0,0-37,37.1-37,37.1,0,0-.4.5-1,.5s-.8-.3-.9-.3l-22.2-22.1s-1.1-1-.9-2.4ZM63.1,136.8c0-.6-.4-1-.5-1l-37-37h0c-.6-.8-1.6-1.3-2.4-1.3H7.6c-.4,0-.6.3-.6.6s0,.3.2.4l23,22.9-23,22.9c-.2.2-.2.4-.2.6,0,.3.3.4.5.4h15.3c.8,0,1.7-.4,2.2-1h0s14-14,14-14l6.6,6.6-23,23c-.2.2-.2.4-.2.5,0,.2.3.4.5.4h15.2c1.4.1,2.4-1,2.4-1l22.1-22.1c0,0,.3-.4.3-.9ZM106.3,148.6l-22.1-22.1c-.1,0-.4-.3-.9-.3s-1,.4-1,.5l-37,37h0c-.8.7-1.3,1.6-1.3,2.5v15.5c0,.4.3.6.6.6s.3,0,.4-.2l22.9-23,22.9,23c.2.2.4.2.6.2.3,0,.4-.3.4-.5,0,0,0-15.3,0-15.3,0-.9-.4-1.7-1-2.2h0s-14-14-14-14l6.5-6.6,23,23c.2.2.4.2.5.2.2,0,.4-.3.4-.5v-15.2c.1-1.4-.9-2.4-.9-2.4ZM105.5,121.3l23-22.9c.2-.2.2-.4.2-.6,0-.3-.3-.4-.5-.4h-15.3c-.9,0-1.7.4-2.2,1h0s-14,14-14,14l-6.6-6.6,23-23c.2-.2.2-.4.2-.5,0-.2-.3-.4-.5-.4h-15.2c-1.4,0-2.4,1-2.4,1l-22.1,22.1c0,.1-.3.4-.3.9s.4,1,.5,1l37,37h0c.6.8,1.6,1.3,2.4,1.3h15.5c.4,0,.6-.3.6-.6s0-.3-.2-.4l-22.9-22.9Z"/>
</svg>